osim_states
version=1
nRows=4
nColumns=185
inDegrees=yes

# SIMM Motion File Header:
name osim_states
datacolumns 185
datarows 4
otherdata 1
range 0.03639336 0.03670179
endheader
time	platform_rx	platform_ry	platform_rz	platform_ty	pelvis_tilt	pelvis_list	pelvis_rotation	pelvis_tx	pelvis_ty	pelvis_tz	hip_flexion_r	hip_adduction_r	hip_rotation_r	knee_angle_r	patella_r_constrained_knee_angle	ankle_angle_r	subtalar_angle_r	mtp_angle_r	hip_flexion_l	hip_adduction_l	hip_rotation_l	knee_angle_l	patella_l_constrained_knee_angle	ankle_angle_l	subtalar_angle_l	mtp_angle_l	lumbar_extension	lumbar_bending	lumbar_rotation	arm_flex_r	arm_add_r	arm_rot_r	elbow_flex_r	pro_sup_r	wrist_flex_r	wrist_dev_r	arm_flex_l	arm_add_l	arm_rot_l	elbow_flex_l	pro_sup_l	wrist_flex_l	wrist_dev_l	platform_rx_u	platform_ry_u	platform_rz_u	platform_ty_u	pelvis_tilt_u	pelvis_list_u	pelvis_rotation_u	pelvis_tx_u	pelvis_ty_u	pelvis_tz_u	hip_flexion_r_u	hip_adduction_r_u	hip_rotation_r_u	knee_angle_r_u	patella_r_constrained_knee_angle_u	ankle_angle_r_u	subtalar_angle_r_u	mtp_angle_r_u	hip_flexion_l_u	hip_adduction_l_u	hip_rotation_l_u	knee_angle_l_u	patella_l_constrained_knee_angle_u	ankle_angle_l_u	subtalar_angle_l_u	mtp_angle_l_u	lumbar_extension_u	lumbar_bending_u	lumbar_rotation_u	arm_flex_r_u	arm_add_r_u	arm_rot_r_u	elbow_flex_r_u	pro_sup_r_u	wrist_flex_r_u	wrist_dev_r_u	arm_flex_l_u	arm_add_l_u	arm_rot_l_u	elbow_flex_l_u	pro_sup_l_u	wrist_flex_l_u	wrist_dev_l_u	glut_med1_r.activation	glut_med1_r.fiber_length	glut_med2_r.activation	glut_med2_r.fiber_length	glut_med3_r.activation	glut_med3_r.fiber_length	glut_min1_r.activation	glut_min1_r.fiber_length	glut_min2_r.activation	glut_min2_r.fiber_length	glut_min3_r.activation	glut_min3_r.fiber_length	semimem_r.activation	semimem_r.fiber_length	semiten_r.activation	semiten_r.fiber_length	bifemlh_r.activation	bifemlh_r.fiber_length	bifemsh_r.activation	bifemsh_r.fiber_length	sar_r.activation	sar_r.fiber_length	add_long_r.activation	add_long_r.fiber_length	add_brev_r.activation	add_brev_r.fiber_length	add_mag1_r.activation	add_mag1_r.fiber_length	add_mag2_r.activation	add_mag2_r.fiber_length	add_mag3_r.activation	add_mag3_r.fiber_length	tfl_r.activation	tfl_r.fiber_length	pect_r.activation	pect_r.fiber_length	grac_r.activation	grac_r.fiber_length	glut_max1_r.activation	glut_max1_r.fiber_length	glut_max2_r.activation	glut_max2_r.fiber_length	glut_max3_r.activation	glut_max3_r.fiber_length	iliacus_r.activation	iliacus_r.fiber_length	psoas_r.activation	psoas_r.fiber_length	quad_fem_r.activation	quad_fem_r.fiber_length	gem_r.activation	gem_r.fiber_length	peri_r.activation	peri_r.fiber_length	rect_fem_r.activation	rect_fem_r.fiber_length	vas_med_r.activation	vas_med_r.fiber_length	vas_int_r.activation	vas_int_r.fiber_length	vas_lat_r.activation	vas_lat_r.fiber_length	med_gas_r.activation	med_gas_r.fiber_length	lat_gas_r.activation	lat_gas_r.fiber_length	soleus_r.activation	soleus_r.fiber_length	tib_post_r.activation	tib_post_r.fiber_length	flex_dig_r.activation	flex_dig_r.fiber_length	flex_hal_r.activation	flex_hal_r.fiber_length	tib_ant_r.activation	tib_ant_r.fiber_length	per_brev_r.activation	per_brev_r.fiber_length	per_long_r.activation	per_long_r.fiber_length	per_tert_r.activation	per_tert_r.fiber_length	ext_dig_r.activation	ext_dig_r.fiber_length	ext_hal_r.activation	ext_hal_r.fiber_length	ercspn_r.activation	ercspn_r.fiber_length	ercspn_l.activation	ercspn_l.fiber_length	intobl_r.activation	intobl_r.fiber_length	intobl_l.activation	intobl_l.fiber_length	extobl_r.activation	extobl_r.fiber_length	extobl_l.activation	extobl_l.fiber_length
      0.03639336	      0.00000000	      0.00000000	     -0.00000000	      0.00000000	    -14.01087949	      5.90981930	     17.19103773	     -0.42477579	      0.99321188	      0.34115627	     32.58179486	     -8.09807196	     -6.63297610	    -26.18185208	    -26.18185208	      6.50953393	     -7.39253310	      0.00001318	     52.13915936	     -0.00000000	     -9.99811353	   -101.98648811	   -101.98648811	      6.49999992	     -0.00000000	     -0.00000000	    -11.50253404	     -6.55081590	    -11.77958499	     -0.00000000	     -8.91003344	      0.00000000	     72.06682857	     46.23690339	     -0.00000000	      4.87402477	     -0.00000000	     -8.91003344	     -0.00000000	     72.06682857	     46.23690339	      0.00000000	      4.87402477	      0.00000000	     -0.00000000	     -0.00000000	      0.00000000	     -7.80817094	    -85.85863897	   -196.30270723	      0.00162511	     -1.99113661	      0.53671294	    539.12595201	    225.31078782	    420.28063895	   -878.68671693	   -878.68671693	    413.22017617	   -298.42852880	      0.00000000	      0.00000000	      0.00000000	      0.00000000	     -0.00000000	     -0.00000000	      0.00000000	     -0.00000000	     -0.00000000	    -68.18175800	     86.88426150	    218.59204767	     -0.00000000	      0.00000000	      0.00000000	     -0.00000000	      0.00000000	      0.00000000	      0.00000000	     -0.00000000	     -0.00000000	      0.00000000	     -0.00000000	      0.00000000	      0.00000000	     -0.00000000	      0.03399039	      0.05043507	      0.10684371	      0.08709504	      0.26037803	      0.06826504	      0.03441582	      0.07017408	      0.05233134	      0.05922317	      0.18075616	      0.03730806	      0.21600498	      0.07588203	      0.47471001	      0.24318486	      0.34688589	      0.11840864	      0.24790098	      0.17351727	      0.03603168	      0.46266475	      0.03399039	      0.10920672	      0.03399039	      0.13032222	      0.03399039	      0.07685492	      0.03399039	      0.10477568	      0.03492122	      0.13505631	      0.05297366	      0.08912968	      0.03399039	      0.06852151	      0.03399039	      0.35036247	      0.09877458	      0.09629713	      0.10954079	      0.10982595	      0.07976063	      0.13677767	      0.03399039	      0.08849869	      0.03399039	      0.08149846	      0.29583965	      0.04958798	      0.48577984	      0.02115766	      0.41795132	      0.01929138	      0.15188559	      0.10164421	      0.12550760	      0.07434999	      0.15579217	      0.07582101	      0.12831489	      0.06986963	      0.30713944	      0.05448424	      0.32071717	      0.05902308	      0.37839584	      0.04958773	      0.01000000	      0.03931503	      0.01000000	      0.03719485	      0.01000000	      0.04540788	      0.23608243	      0.09571757	      0.01000000	      0.05005393	      0.01000000	      0.05112558	      0.01000000	      0.08292889	      0.01000000	      0.10497394	      0.01000000	      0.11421424	      0.13468230	      0.13496488	      0.07418002	      0.12223419	      0.03399039	      0.09346565	      0.07295151	      0.08571489	      0.15951212	      0.13505499	      0.04693706	      0.10567214
      0.03649187	      0.00000000	      0.00000000	     -0.00000000	      0.00000000	    -14.01164710	      5.90135084	     17.17163008	     -0.42477580	      0.99301595	      0.34120921	     32.63513110	     -8.07584723	     -6.59160708	    -26.26876480	    -26.26876480	      6.54998501	     -7.42188214	      0.00001318	     52.13915936	     -0.00000000	     -9.99811353	   -101.98648811	   -101.98648811	      6.49999992	     -0.00000000	     -0.00000000	    -11.50927483	     -6.54224792	    -11.75798220	     -0.00000000	     -8.91003344	      0.00000000	     72.06682857	     46.23690339	     -0.00000000	      4.87402477	     -0.00000000	     -8.91003344	     -0.00000000	     72.06682857	     46.23690339	      0.00000000	      4.87402477	      0.00000000	     -0.00000000	     -0.00000000	      0.00000000	     -7.77468931	    -86.07221847	   -197.70250296	     -0.00197372	     -1.98665672	      0.53808850	    543.67260803	    225.90228949	    419.58404863	   -885.76624900	   -885.76624900	    408.07155095	   -297.41121671	      0.00000000	      0.00000000	      0.00000000	      0.00000000	     -0.00000000	     -0.00000000	      0.00000000	     -0.00000000	     -0.00000000	    -68.67093989	     87.06832734	    219.98081110	     -0.00000000	      0.00000000	      0.00000000	     -0.00000000	      0.00000000	      0.00000000	      0.00000000	     -0.00000000	     -0.00000000	      0.00000000	     -0.00000000	      0.00000000	      0.00000000	     -0.00000000	      0.03395786	      0.05042966	      0.10849229	      0.08711381	      0.26380812	      0.06830287	      0.03438268	      0.07015948	      0.05227108	      0.05922143	      0.18229162	      0.03732000	      0.21591232	      0.07586769	      0.47473046	      0.24316819	      0.34684966	      0.11839929	      0.24789222	      0.17348467	      0.03599619	      0.46261039	      0.03395786	      0.10916612	      0.03395786	      0.13030134	      0.03395786	      0.07685214	      0.03395786	      0.10477388	      0.03488735	      0.13505697	      0.05291238	      0.08913007	      0.03395786	      0.06849257	      0.03395786	      0.35031879	      0.10061608	      0.09632939	      0.11170564	      0.10986529	      0.08220568	      0.13681297	      0.03395786	      0.08847099	      0.03395786	      0.08147182	      0.30007678	      0.04962735	      0.48965089	      0.02118201	      0.42139008	      0.01931283	      0.15252734	      0.10167101	      0.12721316	      0.07440140	      0.15771469	      0.07587419	      0.13004917	      0.06992056	      0.30789935	      0.05449154	      0.32150704	      0.05903173	      0.37944825	      0.04961393	      0.01000000	      0.03932827	      0.01000000	      0.03720834	      0.01000000	      0.04542782	      0.23600667	      0.09567328	      0.01000000	      0.05005034	      0.01000000	      0.05112624	      0.01000000	      0.08290740	      0.01000000	      0.10494631	      0.01000000	      0.11418420	      0.13467799	      0.13496082	      0.07464893	      0.12224708	      0.03395786	      0.09345495	      0.07285711	      0.08571522	      0.15948002	      0.13503194	      0.04708657	      0.10567943
      0.03659683	      0.00000000	      0.00000000	     -0.00000000	      0.00000000	    -14.01246079	      5.89230501	     17.15080686	     -0.42477620	      0.99280768	      0.34126575	     32.69243044	     -8.05210543	     -6.54761637	    -26.36210146	    -26.36210146	      6.59253788	     -7.45303410	      0.00001318	     52.13915936	     -0.00000000	     -9.99811353	   -101.98648811	   -101.98648811	      6.49999992	     -0.00000000	     -0.00000000	    -11.51650910	     -6.53309885	    -11.73482103	     -0.00000000	     -8.91003344	      0.00000000	     72.06682857	     46.23690339	     -0.00000000	      4.87402477	     -0.00000000	     -8.91003344	     -0.00000000	     72.06682857	     46.23690339	      0.00000000	      4.87402477	      0.00000000	     -0.00000000	     -0.00000000	      0.00000000	     -7.72865245	    -86.29871938	   -199.06904084	     -0.00557066	     -1.98215790	      0.53941392	    548.11614348	    226.49919042	    418.63928628	   -892.68809698	   -892.68809698	    402.82168457	   -296.18771643	      0.00000000	      0.00000000	      0.00000000	      0.00000000	     -0.00000000	     -0.00000000	      0.00000000	     -0.00000000	     -0.00000000	    -69.17782025	     87.27113705	    221.34238291	     -0.00000000	      0.00000000	      0.00000000	     -0.00000000	      0.00000000	      0.00000000	      0.00000000	     -0.00000000	     -0.00000000	      0.00000000	     -0.00000000	      0.00000000	      0.00000000	     -0.00000000	      0.03392326	      0.05042380	      0.11025957	      0.08713406	      0.26744465	      0.06834345	      0.03434742	      0.07014395	      0.05220698	      0.05921956	      0.18393935	      0.03733284	      0.21581335	      0.07585240	      0.47475119	      0.24315034	      0.34681089	      0.11838941	      0.24788237	      0.17344904	      0.03595843	      0.46255105	      0.03392326	      0.10912286	      0.03392326	      0.13027906	      0.03392326	      0.07684940	      0.03392326	      0.10477230	      0.03485131	      0.13505794	      0.05284720	      0.08913042	      0.03392326	      0.06846174	      0.03392326	      0.35027195	      0.10259149	      0.09636428	      0.11402479	      0.10990783	      0.08484792	      0.13685150	      0.03392326	      0.08844148	      0.03392326	      0.08144260	      0.30454072	      0.04966945	      0.49373796	      0.02120800	      0.42504704	      0.01933582	      0.15321671	      0.10169985	      0.12904683	      0.07445687	      0.15977779	      0.07593162	      0.13191585	      0.06997554	      0.30870081	      0.05449896	      0.32234034	      0.05904054	      0.38056340	      0.04964142	      0.01000000	      0.03934227	      0.01000000	      0.03722262	      0.01000000	      0.04544888	      0.23592555	      0.09562610	      0.01000000	      0.05004631	      0.01000000	      0.05112690	      0.01000000	      0.08288450	      0.01000000	      0.10491686	      0.01000000	      0.11415220	      0.13467334	      0.13495647	      0.07515098	      0.12226087	      0.03392326	      0.09344361	      0.07275671	      0.08571550	      0.15944542	      0.13500706	      0.04724707	      0.10568723
      0.03670179	      0.00000000	      0.00000000	     -0.00000000	      0.00000000	    -14.01326910	      5.88323544	     17.12984675	     -0.42477697	      0.99259986	      0.34132243	     32.75017525	     -8.02830274	     -6.50373532	    -26.45613233	    -26.45613233	      6.63455188	     -7.48404887	      0.00001318	     52.13915936	     -0.00000000	     -9.99811353	   -101.98648811	   -101.98648811	      6.49999992	     -0.00000000	     -0.00000000	    -11.52379582	     -6.52392812	    -11.71152312	     -0.00000000	     -8.91003344	      0.00000000	     72.06682857	     46.23690339	     -0.00000000	      4.87402477	     -0.00000000	     -8.91003344	     -0.00000000	     72.06682857	     46.23690339	      0.00000000	      4.87402477	      0.00000000	     -0.00000000	     -0.00000000	      0.00000000	     -7.67225667	    -86.52448644	   -200.31215318	     -0.00893362	     -1.97792778	      0.54060065	    552.16392776	    227.06282774	    417.49576216	   -898.99899343	   -898.99899343	    397.80192871	   -294.78897564	      0.00000000	      0.00000000	      0.00000000	      0.00000000	     -0.00000000	     -0.00000000	      0.00000000	     -0.00000000	     -0.00000000	    -69.67069340	     87.48103693	    222.58725649	     -0.00000000	      0.00000000	      0.00000000	     -0.00000000	      0.00000000	      0.00000000	      0.00000000	     -0.00000000	     -0.00000000	      0.00000000	     -0.00000000	      0.00000000	      0.00000000	     -0.00000000	      0.03388870	      0.05041787	      0.11203601	      0.08715456	      0.27105968	      0.06838428	      0.03431221	      0.07012846	      0.05214299	      0.05921770	      0.18559764	      0.03734580	      0.21571413	      0.07583712	      0.47477084	      0.24313238	      0.34677194	      0.11837963	      0.24787198	      0.17341252	      0.03592073	      0.46249036	      0.03388870	      0.10907961	      0.03388870	      0.13025673	      0.03388870	      0.07684691	      0.03388870	      0.10477106	      0.03481532	      0.13505922	      0.05278213	      0.08913070	      0.03388870	      0.06843091	      0.03388870	      0.35022481	      0.10457844	      0.09639967	      0.11635427	      0.10995098	      0.08752507	      0.13689095	      0.03388870	      0.08841197	      0.03388870	      0.08141333	      0.30894953	      0.04971168	      0.49778389	      0.02123403	      0.42869421	      0.01935894	      0.15391096	      0.10172897	      0.13089538	      0.07451305	      0.16185387	      0.07598979	      0.13379987	      0.07003122	      0.30949388	      0.05450603	      0.32316518	      0.05904895	      0.38167223	      0.04966848	      0.01000000	      0.03935615	      0.01000000	      0.03723679	      0.01000000	      0.04546974	      0.23584402	      0.09557892	      0.01000000	      0.05004204	      0.01000000	      0.05112752	      0.01000000	      0.08286160	      0.01000000	      0.10488741	      0.01000000	      0.11412020	      0.13466861	      0.13495210	      0.07565532	      0.12227475	      0.03388870	      0.09343234	      0.07265650	      0.08571571	      0.15941040	      0.13498185	      0.04740866	      0.10569507
